<?xml version="1.0" encoding="UTF-8" standalone="no"?>
<svg
   id="Calque_1"
   data-name="Calque 1"
   viewBox="0 0 298.14 119.85"
   version="1.1"
   sodipodi:docname="desktop22_dark.svg"
   inkscape:version="1.1.2 (b8e25be833, 2022-02-05)"
   xmlns:inkscape="http://www.inkscape.org/namespaces/inkscape"
   xmlns:sodipodi="http://sodipodi.sourceforge.net/DTD/sodipodi-0.dtd"
   xmlns="http://www.w3.org/2000/svg"
   xmlns:svg="http://www.w3.org/2000/svg"
   xmlns:rdf="http://www.w3.org/1999/02/22-rdf-syntax-ns#"
   xmlns:cc="http://creativecommons.org/ns#"
   xmlns:dc="http://purl.org/dc/elements/1.1/">
  <sodipodi:namedview
     id="namedview27"
     pagecolor="#ffffff"
     bordercolor="#666666"
     borderopacity="1.0"
     inkscape:pageshadow="2"
     inkscape:pageopacity="0.0"
     inkscape:pagecheckerboard="0"
     showgrid="false"
     inkscape:zoom="0.6338441"
     inkscape:cx="-508.80019"
     inkscape:cy="-318.69035"
     inkscape:window-width="1920"
     inkscape:window-height="1057"
     inkscape:window-x="-8"
     inkscape:window-y="-8"
     inkscape:window-maximized="1"
     inkscape:current-layer="Calque_1" />
  <defs
     id="defs4">
    <style
       id="style2">.cls-1{fill:none;stroke:#fff;stroke-width:3px;}.cls-2{fill:#fff;}.cls-3{fill:#8cd83a;}</style>
  </defs>
  <title
     id="title6">desktop22</title>
  <circle
     class="cls-1"
     cx="101.95"
     cy="70.03"
     r="48.32"
     id="circle8"
     style="stroke:#2a2e33;stroke-opacity:1" />
  <path
     class="cls-2"
     d="M124.81,56.19a43.33,43.33,0,1,0,43.33,43.33A43.33,43.33,0,0,0,124.81,56.19Zm15.44,10.22c3-.25,5.35,2.38,5.07,5.75-.29,3.52-3.76,5.89-6.52,4.46a5.14,5.14,0,0,1-2.84-5C136,68.82,137.74,66.62,140.25,66.41Zm-2,45.46c-.92,1.72-1.83,3.33-1.86,3.3a7.47,7.47,0,0,1,.23-.84c.35-1.15.77-2.89.93-3.81a9.2,9.2,0,0,0,0-3.35c-.76-2.43-3.38-2.19-8.36.77-3,1.81-6.2,4.09-14.18,10.24-7.74,6-10.81,8.18-13.82,10-1.44.87-3,1.68-2.68,1.4h0l1.67-1.26c11.13-8.33,19.78-17.92,24.4-27a36.31,36.31,0,0,0,4.05-13,34.08,34.08,0,0,0,0-4.74,23.14,23.14,0,0,0-8.86-15.84c-.37-.32-.83-.68-1-.81-1.47-1,2.69,1.22,4.71,2.58a34.94,34.94,0,0,1,5.26,4.34c7.81,8.07,7.81,17.88,0,29.07-1,1.51-1.09,1.51,2-.11,3.26-1.7,5.09-2.62,6.2-3.11,2.82-1.25,4.58-1.51,5.33-.81C143.56,100,142.19,104.5,138.23,111.87ZM151,74.81a29.62,29.62,0,0,1-4.71,8.42c-1.47,1.68-2.95,2.59-4.42,2.71a5.92,5.92,0,0,1-1.26-.13h0a4.36,4.36,0,0,1-.85-.32,5.44,5.44,0,0,1-.59-.33s-1-4.54-1.09-4.87c0-.06,0-.06.26.33A5.73,5.73,0,0,0,141.24,83a4.73,4.73,0,0,0,1.19.15,5.09,5.09,0,0,0,2.08-.62,10.77,10.77,0,0,0,1.3-.89,16.68,16.68,0,0,0,2.86-3.15,29.35,29.35,0,0,0,2.22-3.55l.28-.53C151.22,74.27,151.16,74.45,151,74.81Z"
     transform="translate(-22.86 -29.49)"
     id="path10"
     style="fill:#2a2e33;fill-opacity:1" />
  <path
     class="cls-2"
     d="M30.76,131.71h-7.9V69.11h9.9l10.7,38.8,10.7-38.8h9.9v62.6h-7.9V85.91l-8.6,32.2h-8.2L30.76,86Z"
     transform="translate(-22.86 -29.49)"
     id="path12"
     style="fill:#2a2e33;fill-opacity:1" />
  <path
     class="cls-2"
     d="M213.25,69.11v7.3h-10.5v55.3h-9V76.41h-10.5v-7.3Z"
     transform="translate(-22.86 -29.49)"
     id="path14"
     style="fill:#2a2e33;fill-opacity:1" />
  <path
     class="cls-2"
     d="M223.35,69.11h9v62.6h-9Z"
     transform="translate(-22.86 -29.49)"
     id="path16"
     style="fill:#2a2e33;fill-opacity:1" />
  <path
     class="cls-2"
     d="M256.05,69.11h11.1q9.3,0,9.3,8.8v45q0,8.79-9.3,8.8h-11.1q-9.41,0-9.4-8.8v-45Q246.65,69.11,256.05,69.11Zm11.4,52.4V79.31a3.26,3.26,0,0,0-.6-2.35,3.69,3.69,0,0,0-2.4-.55h-5.8a3.45,3.45,0,0,0-2.35.55,3.45,3.45,0,0,0-.55,2.35v42.2a2.29,2.29,0,0,0,2.9,2.9h5.8a3.69,3.69,0,0,0,2.4-.55A3.27,3.27,0,0,0,267.45,121.51Z"
     transform="translate(-22.86 -29.49)"
     id="path18"
     style="fill:#2a2e33;fill-opacity:1" />
  <path
     class="cls-2"
     d="M312.35,69.11h8.3v62.6h-9.1l-13.2-45.2v45.2h-8.3V69.11h9.5l12.8,43.9Z"
     transform="translate(-22.86 -29.49)"
     id="path20"
     style="fill:#2a2e33;fill-opacity:1" />
  <path
     class="cls-3"
     d="M293.82,49.16a14.3,14.3,0,0,1-.82,5,10.3,10.3,0,0,1-2.36,3.75,10,10,0,0,1-3.73,2.32,14.66,14.66,0,0,1-5,.79,14.12,14.12,0,0,1-4.67-.74,10.09,10.09,0,0,1-3.61-2.19,9.61,9.61,0,0,1-2.32-3.63,14.33,14.33,0,0,1-.81-5V30.26a.64.64,0,0,1,.09-.34.75.75,0,0,1,.34-.23,4.51,4.51,0,0,1,.62-.14,8.28,8.28,0,0,1,2,0,3.82,3.82,0,0,1,.63.14.68.68,0,0,1,.32.23.57.57,0,0,1,.1.34V49a11.79,11.79,0,0,0,.53,3.75,7.09,7.09,0,0,0,1.51,2.67A6.26,6.26,0,0,0,279,57a8.65,8.65,0,0,0,3.14.54,9.1,9.1,0,0,0,3.2-.52,6.14,6.14,0,0,0,2.37-1.58,7.07,7.07,0,0,0,1.48-2.61,11.72,11.72,0,0,0,.51-3.64V30.26a.65.65,0,0,1,.1-.34.72.72,0,0,1,.33-.23,4.55,4.55,0,0,1,.64-.14,6.71,6.71,0,0,1,1-.06,6.61,6.61,0,0,1,1,.06,3.91,3.91,0,0,1,.62.14.81.81,0,0,1,.34.23.57.57,0,0,1,.1.34Z"
     transform="translate(-22.86 -29.49)"
     id="path22"
     style="fill:#82c95a;fill-opacity:1" />
  <path
     class="cls-3"
     d="M321,38.7a10.94,10.94,0,0,1-.77,4.19,8.88,8.88,0,0,1-2.19,3.18,9.78,9.78,0,0,1-3.49,2,15.39,15.39,0,0,1-4.94.71H306.1V60a.58.58,0,0,1-.11.34.77.77,0,0,1-.33.23,4.07,4.07,0,0,1-.63.14,8.2,8.2,0,0,1-2,0,4.55,4.55,0,0,1-.64-.14.72.72,0,0,1-.33-.23A.65.65,0,0,1,302,60V31.41a1.66,1.66,0,0,1,.51-1.37,1.73,1.73,0,0,1,1.12-.4h6.63c.67,0,1.31,0,1.92.08a17.51,17.51,0,0,1,2.18.36,8.65,8.65,0,0,1,2.56,1A8,8,0,0,1,319.11,33a7.7,7.7,0,0,1,1.4,2.55A9.79,9.79,0,0,1,321,38.7Zm-4.34.34a6.45,6.45,0,0,0-.7-3.16A4.81,4.81,0,0,0,314.22,34a5.73,5.73,0,0,0-2.15-.79A14.84,14.84,0,0,0,309.9,33h-3.8V45.45h3.71a8.66,8.66,0,0,0,3.1-.48A5.81,5.81,0,0,0,315,43.64a5.49,5.49,0,0,0,1.26-2A7.41,7.41,0,0,0,316.67,39Z"
     transform="translate(-22.86 -29.49)"
     id="path24"
     style="fill:#82c95a;fill-opacity:1" />
  <metadata
     id="metadata1489">
    <rdf:RDF>
      <cc:Work
         rdf:about="">
        <dc:title>desktop22</dc:title>
      </cc:Work>
    </rdf:RDF>
  </metadata>
</svg>
